<svg width="0" height="0">
<symbol id="logo" xmlns="http://www.w3.org/2000/svg" viewBox="0 0 144.79 118.88">
<g id="Capa_1" data-name="Capa 1">
<path d="M123.45,38.51h-.82L106,0H97.16L80.48,38.51h-2.4V32.87H60.58V0H51.43V38.51h-5.7V41H89.17L93,32.17h17.2L114,41h11.61V38.51Zm-27-14.38,5.17-11.92,5.1,11.92Z"/>
<path d="M80.6,77.85H73.79Q80.94,73,81,62.3V48.65H71.79V62a12.17,12.17,0,0,1-2.26,7.78,7.4,7.4,0,0,1-6.13,2.85,7.48,7.48,0,0,1-6.16-2.85A12.06,12.06,0,0,1,55,62V39.71l-9.16-.37v23Q45.79,73,53,77.85H33.46A19.24,19.24,0,0,0,38.22,74V59.48H29V70.75a15.77,15.77,0,0,1-7.93,1.82,11,11,0,0,1-8.18-3.49,12.7,12.7,0,0,1-3.44-9.31A12.59,12.59,0,0,1,13,50.41a12,12,0,0,1,8.81-3.55,13.57,13.57,0,0,1,5,.91,18.1,18.1,0,0,1,5.07,3.31l4.76-6.86A22.29,22.29,0,0,0,21.34,38.4,20.83,20.83,0,0,0,6.25,44.51,20.31,20.31,0,0,0,0,59.65,21.4,21.4,0,0,0,2.67,70.37,19.89,19.89,0,0,0,10,77.85H2.82v2.53H80.88V77.85Z"/>
<path d="M138,116.35,121.37,77.84h-8.86L95.84,116.35H90V88.06L80.87,77.84v38.51H67.6a10,10,0,0,0,4.58-8.86A9.61,9.61,0,0,0,69.92,101a10.78,10.78,0,0,0-6.08-3.43c.71-.31,1.2-.54,1.47-.68a11.65,11.65,0,0,0,1.47-1q3.1-2.36,3.11-7.17a10.63,10.63,0,0,0-2.76-7.16,10.39,10.39,0,0,0-4.55-2.7,23.15,23.15,0,0,0-7.19-1h-16v38.51H31.13v2.53h73.39l3.82-8.87h17.2l3.81,8.87h15.44v-2.53ZM48.58,85.59H53a13.66,13.66,0,0,1,5.76.88c1.13.59,1.7,1.79,1.7,3.61s-.62,3-1.85,3.56a14.88,14.88,0,0,1-5.67.82H48.58Zm12.18,24.57a13.81,13.81,0,0,1-5.9,1H48.58v-9.45H54a17.78,17.78,0,0,1,6.66.91c1.39.61,2.09,1.86,2.09,3.75S62.07,109.51,60.76,110.16Zm51-8.19L117,90.05,122.08,102Z"/></g>
</sybbol></svg>